<svg xmlns="http://www.w3.org/2000/svg" xmlns:xlink="http://www.w3.org/1999/xlink" width="155" height="187" viewBox="0 0 155 187" fill="none">
<path   fill-rule="evenodd"  fill="#EBEFF5"  d="M103.691 115.904C118.254 107.164 128 91.2203 128 73C128 45.3858 105.614 23 78 23C50.3858 23 28 45.3858 28 73C28 90.4579 36.9472 105.826 50.5063 114.769C50.1741 116.461 50 118.21 50 120L50 156C50 170.912 62.0883 183 77 183C91.9117 183 104 170.912 104 156L104 120C104 118.607 103.895 117.239 103.691 115.904Z">
</path>
<path fill-rule="evenodd"  fill="rgba(255, 255, 255, 0.6)"  d="M107.933 117.952Q108 118.972 108 120L108 156C108 173.121 94.1208 187 77 187C59.8792 187 46 173.121 46 156L46 120Q46 118.305 46.1806 116.635Q41.9266 113.53 38.3317 109.64Q33.8446 104.784 30.6644 99.0066Q27.4271 93.126 25.7389 86.6417Q24 79.9627 24 73C24 43.1766 48.1766 19 78 19C107.823 19 132 43.1766 132 73Q132 80.2642 130.109 87.2118Q128.275 93.9515 124.769 100.011Q121.322 105.966 116.484 110.881Q112.558 114.869 107.933 117.952ZM103.691 115.904C118.254 107.164 128 91.2203 128 73C128 45.3858 105.614 23 78 23C50.3858 23 28 45.3858 28 73C28 90.4579 36.9472 105.826 50.5063 114.769C50.1741 116.461 50 118.21 50 120L50 156C50 170.912 62.0883 183 77 183C91.9117 183 104 170.912 104 156L104 120C104 118.607 103.895 117.239 103.691 115.904Z">
</path>
<path    stroke="rgba(101, 122, 255, 0.6)" stroke-width="4"    d="M35.0823 83.0027C33.5017 75.8121 33.656 68.3655 35.5273 61.2404C37.3987 54.1153 40.9375 47.5034 45.8748 41.9135C50.8121 36.3235 57.0157 31.9046 64.0006 29.0027">
</path>
<path    stroke="rgba(101, 122, 255, 0.6)" stroke-width="4"    d="M38.3182 90L39.9233 91.9304L41.5355 93.8537">
</path>
<rect x="79" y="0" width="10" height="5" transform="rotate(90 79 0)"   fill="#FFC300" >
</rect>
<rect x="125.96836853027344" y="15.22314453125" width="10" height="5" transform="rotate(119.99999896651269 125.96836853027344 15.22314453125)"   fill="#FFC300" >
</rect>
<rect x="155" y="67" width="10" height="5" transform="rotate(179.99999977123198 155 67)"   fill="#FFC300" >
</rect>
<rect x="147.07106018066406" y="94.60662841796875" width="10" height="5" transform="rotate(-135 147.07106018066406 94.60662841796875)"   fill="#FFC300" >
</rect>
<rect x="137.07106018066406" y="117.60662841796875" width="10" height="5" transform="rotate(-135 137.07106018066406 117.60662841796875)"   fill="#FFC300" >
</rect>
<rect  x="54" y="141" width="46" height="12" rx="6"    fill="#999999" >
</rect>
<rect  x="62" y="165" width="30" height="9" rx="4.5"    fill="#999999" >
</rect>
<rect x="10" y="67" width="10" height="5" transform="rotate(180 10 67)"   fill="#FFC300" >
</rect>
<rect x="17.60662841796875" y="88.5355224609375" width="10" height="5" transform="rotate(135 17.60662841796875 88.5355224609375)"   fill="#FFC300" >
</rect>
<rect x="28.606597900390625" y="109.5355224609375" width="10" height="5" transform="rotate(135 28.606597900390625 109.5355224609375)"   fill="#FFC300" >
</rect>
<rect x="13.5355224609375" y="33" width="10" height="5" transform="rotate(45 13.5355224609375 33)"   fill="#FFC300" >
</rect>
<rect x="33.968353271484375" y="11.72320556640625" width="10" height="5" transform="rotate(59.999999554707955 33.968353271484375 11.72320556640625)"   fill="#FFC300" >
</rect>
<rect x="139" y="40.071044921875" width="10" height="5" transform="rotate(-45 139 40.071044921875)"   fill="#FFC300" >
</rect>
<path d="M79 70L75 70L75 100.83C73.7598 100.573 72.6091 100.034 71.6041 99.274C69.9469 98.0213 68.6856 96.17 68.0722 94L67.9999 94L68.0054 94.0189L68.0722 94.2504L69.8571 100.433L75.6194 120.394L76.6602 124L77.701 120.394L85.2482 94.2504L85.315 94.0189L85.3204 94L85.2482 94C84.6348 96.17 83.3735 98.0213 81.7163 99.274C80.8974 99.893 79.9819 100.366 79 100.659L79 70ZM76.6602 116.789L72.4123 102.074Q72.7393 102.223 73.077 102.349Q74.8114 103 76.6602 103Q78.509 103 80.2434 102.349Q80.5811 102.223 80.9081 102.074L76.6602 116.789Z" fill-rule="evenodd"  fill="#FFC300" >
</path>
<rect  x="52" y="116" width="50" height="13" rx="6.5"    fill="#999999" >
</rect>
</svg>
